<?xml version="1.0" encoding="utf-8"?>
<!-- Generator: Adobe Illustrator 13.0.0, SVG Export Plug-In . SVG Version: 6.00 Build 14948)  -->
<!DOCTYPE svg PUBLIC "-//W3C//DTD SVG 1.1//EN" "http://www.w3.org/Graphics/SVG/1.1/DTD/svg11.dtd">
<svg version="1.1" id="Layer_1" xmlns="http://www.w3.org/2000/svg" xmlns:xlink="http://www.w3.org/1999/xlink" x="0px" y="0px"
	 width="800px" height="500px" viewBox="0 0 800 500" enable-background="new 0 0 800 500" xml:space="preserve">
<g id="Layer_23">
	<g>
		<linearGradient id="SVGID_1_" gradientUnits="userSpaceOnUse" x1="147.3062" y1="65.8286" x2="147.3061" y2="454.8247">
			<stop  offset="0" style="stop-color:#333333"/>
			<stop  offset="1" style="stop-color:#000000"/>
		</linearGradient>
		<path fill="url(#SVGID_1_)" d="M54.752,349.767c0.845-19.431,8.107-23.232,20.533-34.037s43.218-35.658,49.163-38.9
			c5.945-3.241,13.508-2.162,16.75-4.862s19.716-26.202,38.628-26.202s25.664,6.752,26.206,11.077
			c0.542,4.324-6.483,3.241-6.483,4.862s12.963,8.914,16.205,12.156c3.242,3.241-2.428,7.937-3.78,11.076
			c-0.813,1.891,0.794,12.043-4.052,12.426c-10.266,0.811-15.397-5.942-17.56-3.783c-2.058,2.055,0.542,10.267,0.542,14.588
			s0.544,26.475,4.324,31.337s7.56,12.425,21.609,21.07c14.05,8.646,19.45,10.808,26.475,18.371
			c7.024,7.563,18.37,24.851,12.966,31.875s-7.024,1.08-12.966-1.621c-5.942-2.7-10.808-0.538-13.508-7.563
			s-12.425-23.774-20.529-21.612c0,0,3.783,21.612,8.104,28.096s10.267,24.851,10.267,28.634s4.862,3.783,4.862,9.184
			s-7.025,5.403-16.75,5.403c-9.725,0-10.267-3.241-9.725-5.941s8.104-4.321,6.483-8.104c-1.621-3.783-7.021,3.783-9.184,0
			s-2.166-5.941,0.538-10.805c2.704-4.862,2.704-7.024,2.704-9.725s-17.833-22.156-23.774-27.02
			c-5.942-4.862-24.851-14.046-24.851-18.37s0-20.529,0-22.15s-8.107-9.725-12.429-9.725s-24.851,9.184-24.851,14.046
			s21.071,26.475,20.529,38.899c-0.541,12.426-5.945,31.876-5.404,45.384c0,0,21.612,10.805,26.475,10.805
			c4.863,0,8.104-4.862,8.104,1.079c0,5.942-6.48,5.404-10.805,5.942s-45.928,2.7-48.087-0.542
			c-2.159-3.241-1.076-22.691-0.538-32.958c0.538-10.266,5.401-20.529,5.401-24.854s-6.483-7.024-15.667-12.425
			c0,0-0.538,11.346-4.321,16.208s-32.774,20.995-32.958,24.854c-0.811,17.019,24.313,21.34,24.313,27.285H57.994
			c0,0-21.071-23.502-21.071-27.285s23.774-32.958,29.716-34.037s5.942-1.621,5.942-5.404
			C72.581,382.716,54.21,362.192,54.752,349.767z"/>
		<linearGradient id="SVGID_2_" gradientUnits="userSpaceOnUse" x1="515.2383" y1="65.8262" x2="515.2383" y2="454.8254">
			<stop  offset="0" style="stop-color:#333333"/>
			<stop  offset="1" style="stop-color:#000000"/>
		</linearGradient>
		<path fill="url(#SVGID_2_)" d="M509.664,134.196c0,0-3.241-21.612,9.184-30.796c12.426-9.184,14.585-8.104,27.014-8.646
			c12.428-0.541,20.529,2.701,22.691,6.483c2.162,3.783,2.703,8.104,2.703,8.104s6.483,2.7,6.483,6.483
			c0,3.783-4.862,1.621-4.862,5.404c0,3.783,7.021,11.887,5.941,14.046c-1.079,2.159-6.482-2.7-6.482,0.542
			c0,3.241,0.541,10.266-3.242,13.508s-17.291,2.159-21.612,3.78s-8.646,7.025-9.725,11.887s7.565,12.425,7.024,20.529
			c-0.541,8.104-12.425,17.288-12.425,28.634s13.505,18.371,20.529,23.233c7.024,4.863,20.532,6.483,26.475,6.483
			c5.941,0,19.396,0.157,21.07,8.104c0.811,3.85-2.076,6.331-4.761,9.675c-3.659,4.559-6.978,2.152-9.016,0.589
			c-3.176-2.432-3.1-5.287-6.078-5.807c-4.66-0.81-15.262,2.299-19.045,2.299s-32.417-7.297-34.038-7.297
			c-1.62,0-0.541,10.263-0.541,14.046s18.37,21.071,22.691,29.717s21.071,38.358,21.071,46.462c0,8.104-11.346,44.305-11.346,50.787
			c0,6.483-2.159,19.45-2.159,25.393c0,5.941,12.967,17.288,18.908,19.991c5.942,2.703,25.396,10.267,24.854,16.75l-34.579,0.541
			c0,0-13.508-3.242-19.45-2.7c-5.941,0.541-17.832,4.321-19.991-1.08c-2.159-5.4-0.538-12.966,4.324-19.449
			s4.321-17.288,4.321-23.771s-6.483-14.588-8.104-24.313c-1.62-9.725,0-21.612,4.863-25.934c4.862-4.321,7.563-8.646,4.862-13.508
			s-14.588-12.425-14.588-12.425s-1.079,18.908-2.7,22.149c-1.621,3.242-19.45,15.667-27.554,23.771
			c-8.104,8.104-25.934,23.771-28.096,32.958s-4.324,19.991,2.7,24.854c7.024,4.863,17.291,7.563,16.75,11.347
			c-0.542,3.782,1.082,4.32-5.942,4.32s-17.288,1.621-21.07-3.782c-3.783-5.404-7.566-12.967-15.129-15.129
			c-7.563-2.162-10.808,0.541-11.888-5.942c-1.079-6.483,2.159-9.725,6.483-15.129c4.324-5.403,21.612-16.208,21.612-22.691
			s-1.083-15.67,10.805-24.854c11.887-9.184,21.608-15.129,21.07-22.692c-0.538-7.563-9.187-12.966-9.725-19.449
			s0.003-19.45-7.021-27.555c-7.024-8.104-6.483-16.208-6.483-26.475s2.159-13.508-4.324-21.071
			c-6.483-7.563-12.967-27.013-12.967-39.441c0-12.429,14.046-28.637,22.15-34.038c8.104-5.401,9.187-15.667,15.129-19.45
			C492.373,149.86,509.664,134.196,509.664,134.196z"/>
		<linearGradient id="SVGID_3_" gradientUnits="userSpaceOnUse" x1="694.168" y1="65.8271" x2="694.168" y2="454.8261">
			<stop  offset="0" style="stop-color:#333333"/>
			<stop  offset="1" style="stop-color:#000000"/>
		</linearGradient>
		<path fill="url(#SVGID_3_)" d="M738.607,252.179c1.658-1.985,1.164-1.578,1.52-4.762c0.101-0.912-0.244-2.213-0.507-2.836
			c-1.552-3.685-8.928-9.602-9.976-11.892c-1.513-3.294-4.717-8.544-9.475-13.358s-23.711-31.104-27.352-35.835
			c-2.026-2.634,1.89-42.007,1.89-44.708s-6.483-21.61-6.483-24.852s0.27-14.86,0.27-14.86s9.725,1.08,11.887-0.542
			c2.162-1.621,2.162-4.321,2.162-4.321l1.621-3.242c0,0-0.541-4.859-0.541-7.563s4.321,2.7,4.321-0.542s-8.104-12.425-8.104-15.667
			s2.703-1.083,2.703-3.783s-3.782-3.78-7.565-10.263s-16.747-10.805-24.851-9.184c-8.104,1.621-21.612,9.187-21.612,24.313
			c0,15.125,13.508,27.013,13.508,27.013s-3.241,5.407-8.104,7.028c-4.862,1.621-5.944,6.483-10.266,12.425
			s-12.426,19.45-11.884,25.392c0.541,5.942-9.188,35.658-9.188,42.142s2.7,14.046,4.862,22.15
			c2.163,8.104,11.347,24.313,11.347,24.313s0.541,19.45,0.541,28.634c0,9.184,9.725,12.425,9.725,12.425
			s-0.541,56.182-3.782,65.368c-3.242,9.188-14.588,24.854-14.588,24.854s-0.541,36.199-0.541,48.625
			c0,12.425-4.321,17.287-5.401,24.313c-1.079,7.024,2.7,13.508,2.7,13.508l56.729,1.62c0,0,0,0,0-6.482
			c0-6.483-17.829-4.863-23.233-7.563c-5.403-2.7-7.563-8.104-7.563-13.508s-1.621-23.771,1.08-33.496
			c2.7-9.725,17.291-49.704,17.291-49.704l7.021-18.909c0,0,6.482,6.483,10.808,15.667c4.324,9.184,3.241,10.264-1.083,18.909
			s-2.7,16.749,1.621,29.175c4.321,12.425,8.646,34.037,8.646,41.6c0,7.563,0,29.717,0,29.717s54.028,1.079,59.971,1.079
			c5.941,0,7.024,5.942,7.024-2.7c0-8.642-8.646-7.024-22.691-9.184c-14.047-2.159-23.774-27.013-23.774-27.013
			s-0.538-66.995-1.08-88.066c-0.541-21.07-3.782-26.472-5.403-44.842s-16.208-42.142-16.208-42.142l-2.159-19.45l-0.137-5.47
			c0,0,6.987,4.828,15.462,15.729c1.95,2.51,6.818,8.633,9.393,9.733c0.896,0.383,1.76,0.302,2.162,1.35
			c4.185,10.942,5.043,12.566,9.589,12.392C733.542,254.813,736.236,255.015,738.607,252.179z"/>
		<linearGradient id="SVGID_4_" gradientUnits="userSpaceOnUse" x1="358.5757" y1="65.8271" x2="358.5757" y2="454.8257">
			<stop  offset="0" style="stop-color:#333333"/>
			<stop  offset="1" style="stop-color:#000000"/>
		</linearGradient>
		<path fill="url(#SVGID_4_)" d="M436.727,147.163c0-2.162,8.643-2.7,8.643-7.563c0-4.862-5.941-3.242-5.941-4.862
			c0-1.621,3.782-5.942,0-9.725c-3.783-3.783-18.371-10.808-23.771-10.808s-16.208,0-20.533,2.162s-19.45,16.208-24.851,21.612
			c-5.401,5.404-23.233,11.346-31.337,19.45c-8.104,8.104-23.771,19.988-29.716,33.496c-5.945,13.508-9.722,28.096-17.826,41.601
			c-8.104,13.505-18.428,20.542-17.833,37.279c0.538,15.129,9.187,22.691,12.429,27.013s5.942,27.555,7.563,33.496
			c1.621,5.942,12.429,17.288,12.429,17.288s-0.542,3.242-7.025,7.563c-6.483,4.321-10.266,12.967-10.266,12.967
			s-2.7,22.157-2.7,32.961c0,10.805-5.942,26.476-8.646,31.338s-9.725,10.266-3.78,15.667c5.945,5.4,17.829-3.783,25.933-3.242
			c8.104,0.542,44.842,4.321,44.842,4.321c0.541-12.425-15.667-12.425-22.15-12.425s-15.129-15.129-15.129-22.692
			c0-7.563,5.942-16.208,5.942-16.208s19.991-37.82,24.854-48.625c4.862-10.805,9.184-3.783,9.184-3.783l-0.538,14.588l-0.542,2.162
			c-7.025,8.646-8.104,21.612-2.162,34.579c5.942,12.966,4.324,30.254,4.324,34.037s-1.083,16.208,1.08,20.529
			s10.266,3.242,10.266,3.242l64.833,2.7c0,0,0,0-1.083-5.942c-1.082-5.941-7.563-3.241-12.425-3.241s-17.83-7.025-25.392-11.888
			c-7.563-4.862-12.967-23.232-12.429-32.958c0.538-9.725,6.483-47.545,6.483-62.671s-5.404-14.046-9.184-20.529
			c-1.589-2.723-2.485-5.227-3.02-7.25c-0.399-0.43-0.785-0.905-1.156-1.469c-4.517-6.907-6.493-16.233-7.585-24.306
			c-0.804-5.939-1.652-12.859,0.481-18.69c0.06-0.861,0.101-1.722,0.215-2.583c0.107-0.808,0.354-1.564,0.712-2.231
			c-0.338-0.573-0.582-1.229-0.668-2.001c2.789,2.57,4.977,4.473,5.99,5.084c4.85,2.94,20.877,7.202,26.234,11.865
			c3.419,2.979,1.095,6.588,3.28,12.182c1.406,3.586,3.792,9.259,12.033,6.252c6.047-2.203,11.685-3.144,13.638-8.712
			c4.033-11.504-13.115-22.173-20.745-26.788c-6.8-4.125-20.298-14.577-26.861-25.09c1.76-2.944,3.327-5.996,4.806-9.103
			c-0.272-3.245-0.165-7.454,0.209-13.6c1.079-17.829,5.404-9.184,9.725-11.346c4.321-2.163,4.863-11.346,4.863-18.909
			c0-7.563,15.128-11.887,18.371-12.967c3.241-1.08,10.263-1.08,12.425,2.162s11.888,2.162,16.209,1.621
			c4.32-0.542,6.483-10.267,6.483-14.588C445.911,155.264,436.727,149.322,436.727,147.163z"/>
	</g>
</g>
</svg>
